<svg width="148" height="148" viewBox="0 0 148 148" fill="none" xmlns="http://www.w3.org/2000/svg">
<style>@media (prefers-color-scheme: dark){path{fill:#ffffff}}</style>
<path d="M22.1871 22.7572L22.3939 22.7947C22.479 23.0146 22.1682 24.8735 22.1233 25.2638C21.8147 27.9471 21.402 30.6536 21.3924 33.3581C21.3867 34.9725 21.7031 36.5674 21.8513 38.1706C22.1353 40.8641 22.5014 43.6013 23.1778 46.226C23.4288 47.2002 23.8767 48.1414 24.1991 49.0973C29.5 65.2743 42.4704 77.7934 58.8517 82.5444C62.9241 83.7447 67.1154 84.4987 71.3515 84.793C73.0471 84.917 75.0094 84.864 76.6145 85.0225C82.7501 85.6284 88.6888 87.7957 93.5605 91.6032C95.3558 93.0069 95.9125 93.6932 97.4238 95.1697C96.6595 95.7824 95.5937 96.9305 94.7443 97.6835C92.084 100.041 89.2126 101.705 86.0117 103.208C84.7867 103.784 83.4659 104.039 82.2434 104.428C76.9801 106.07 71.3175 105.946 66.0473 104.432C63.6152 103.733 62.4946 103.409 60.1955 102.25C55.0631 99.7016 50.7018 95.8378 47.5584 91.0547C46.0172 88.664 45.4549 87.3044 44.3037 84.7188C42.2889 84.9005 38.3665 84.7889 36.219 84.7897C31.6671 84.8057 27.1152 84.7985 22.5634 84.7682C23.7182 90.7427 25.958 96.4574 29.1723 101.629C36.1034 112.974 49.0034 122.644 62.1672 125.29C64.4615 126.111 67.981 126.402 70.408 126.58C80.3564 127.332 90.3087 125.169 99.041 120.356C101.165 119.196 103.488 117.485 105.502 116.15C105.137 123.451 102.897 129.875 98.3027 135.599C95.315 139.391 91.5707 142.218 87.2522 144.326C84.4997 145.67 82.362 146.237 79.3737 146.912C76.0865 147.655 73.0928 147.507 69.7714 147.311C65.0917 147.035 60.4722 146.14 55.8868 145.19C54.926 144.991 53.8258 144.547 52.8686 144.255C43.6189 141.467 35.0207 136.864 27.5781 130.715C12.7517 118.502 3.28668 101 1.19654 81.9325C-0.729252 64.009 4.11375 46.0132 14.779 31.4624C16.5384 29.0296 18.4546 26.6621 20.536 24.4961C21.0805 23.9295 21.6963 23.3583 22.1871 22.7572Z" fill="#1D1D1D"/>
<path d="M72.7174 1.08686C74.48 1.01368 76.6482 1.00963 78.4271 1.12256C93.2139 2.05953 107.369 7.44432 119.027 16.5672C122.528 19.315 126.603 23.3341 129.544 26.6844C142.174 41.3078 148.491 60.3227 147.116 79.5769C146.096 93.6386 140.993 107.1 132.429 118.315C130.665 120.652 128.066 123.81 125.868 125.721C126.092 122.894 126.685 119.994 126.726 117.07C126.757 114.756 126.582 112.698 126.32 110.414C125.112 99.0179 120.181 88.3347 112.289 80.0087C104.725 72.0269 94.8485 66.6046 84.0418 64.501C81.1334 63.953 77.5068 63.7457 74.5506 63.6397C68.8113 63.3568 63.0442 62.1099 58.0164 59.209C55.5664 57.7955 52.572 55.6417 50.9401 53.326C51.656 52.3028 52.4548 51.4812 53.396 50.6834C61.4611 43.8474 72.3862 41.2306 82.6087 44.2335C90.9175 46.6741 97.3647 51.7536 101.684 59.3058C102.256 60.3068 103.18 63.0594 103.743 63.6921C104.535 63.9549 109.397 63.8405 110.505 63.8511C115.506 63.8989 120.572 63.778 125.573 63.8518C125.333 62.9562 125.15 61.9917 124.929 61.1051C122.591 51.7532 117.729 43.4708 110.798 36.7389C106.706 32.8164 101.925 29.3979 96.8132 26.9179C93.7768 25.3914 90.8263 24.5333 87.6153 23.6115C83.0858 22.3112 79.1129 21.8455 74.3672 21.8999C70.049 21.9495 65.4339 22.1321 61.2703 23.4627C59.7979 23.9333 58.1188 24.1681 56.6484 24.7434C52.473 26.4208 46.0477 29.0241 42.8437 32.2054L42.8371 32.0682C42.7479 30.1451 43.0478 28.0519 43.4324 26.1669C44.8178 19.3749 48.4756 13.2855 53.6607 8.70574C58.9615 4.08094 65.6823 1.39397 72.7174 1.08686Z" fill="#1D1D1D"/>
</svg>
